<svg xmlns="http://www.w3.org/2000/svg" width="400" height="544" viewBox="0 0 400 544">
  <defs>
    <clipPath id="zz-top">
      <path d="M0,0 L10,-6 L20,0 L30,-6 L40,0 L50,-6 L60,0 L70,-6 L80,0 L90,-6 L100,0 L110,-6 L120,0 L130,-6 L140,0 L150,-6 L160,0 L170,-6 L180,0 L190,-6 L200,0 L210,-6 L220,0 L230,-6 L240,0 L250,-6 L260,0 L270,-6 L280,0 L290,-6 L300,0 L310,-6 L320,0 L330,-6 L340,0 L350,-6 L360,0 L370,-6 L380,0 L390,-6 L400,0 L400,14 L0,14 Z" />
    </clipPath>
    <clipPath id="zz-bottom">
      <path d="M0,544 L10,550 L20,544 L30,550 L40,544 L50,550 L60,544 L70,550 L80,544 L90,550 L100,544 L110,550 L120,544 L130,550 L140,544 L150,550 L160,544 L170,550 L180,544 L190,550 L200,544 L210,550 L220,544 L230,550 L240,544 L250,550 L260,544 L270,550 L280,544 L290,550 L300,544 L310,550 L320,544 L330,550 L340,544 L350,550 L360,544 L370,550 L380,544 L390,550 L400,544 L400,530 L0,530 Z" />
    </clipPath>
  </defs>

  <rect x="0" y="0" width="400" height="544" fill="#1a1b27" />
  <g clip-path="url(#zz-top)"><rect x="0" y="0" width="400" height="16" fill="#1f2335" /></g>
  <g clip-path="url(#zz-bottom)"><rect x="0" y="528" width="400" height="16" fill="#1f2335" /></g>
  <rect x="0" y="14" width="400" height="516" fill="#1f2335" />

  <text x="200" y="44" text-anchor="middle" font-family="'JetBrains Mono','Courier New',monospace" font-size="21" font-weight="700" letter-spacing="3" fill="#7aa2f7">BACKEND DEVELOPER</text>
  <text x="200" y="64" text-anchor="middle" font-family="'JetBrains Mono','Courier New',monospace" font-size="13" letter-spacing="2" fill="#565f89">github.com/samir0607</text>
  <line x1="28" y1="80" x2="372" y2="80" stroke="#3b4261" stroke-width="1" stroke-dasharray="4 4" />

  <text x="28" y="108" font-family="'JetBrains Mono','Courier New',monospace" font-size="16" letter-spacing="2" fill="#565f89">BIO</text>

        <text x="28" y="142" font-family="'JetBrains Mono','Courier New',monospace" font-size="18" fill="#c0caf5">NAME</text>
        <text x="372" y="142" font-family="'JetBrains Mono','Courier New',monospace" font-size="18" font-weight="700" fill="#c0caf5" text-anchor="end">Samir Gupta</text>
      

        <text x="28" y="176" font-family="'JetBrains Mono','Courier New',monospace" font-size="18" fill="#c0caf5">AGE</text>
        <text x="372" y="176" font-family="'JetBrains Mono','Courier New',monospace" font-size="18" font-weight="700" fill="#c0caf5" text-anchor="end">22 yrs</text>
      

        <text x="28" y="210" font-family="'JetBrains Mono','Courier New',monospace" font-size="18" fill="#c0caf5">HEIGHT</text>
        <text x="372" y="210" font-family="'JetBrains Mono','Courier New',monospace" font-size="18" font-weight="700" fill="#c0caf5" text-anchor="end">5'10"</text>
      

        <text x="28" y="244" font-family="'JetBrains Mono','Courier New',monospace" font-size="18" fill="#c0caf5">WEIGHT</text>
        <text x="372" y="244" font-family="'JetBrains Mono','Courier New',monospace" font-size="18" font-weight="700" fill="#c0caf5" text-anchor="end">78 kg</text>
      
<line x1="28" y1="278" x2="372" y2="278" stroke="#3b4261" stroke-width="1" stroke-dasharray="4 4" />
<text x="28" y="292" font-family="'JetBrains Mono','Courier New',monospace" font-size="16" letter-spacing="2" fill="#565f89">STATS</text>

        <text x="28" y="326" font-family="'JetBrains Mono','Courier New',monospace" font-size="18" fill="#c0caf5">GITHUB</text>
        <text x="372" y="326" font-family="'JetBrains Mono','Courier New',monospace" font-size="18" font-weight="700" fill="#c0caf5" text-anchor="end">N/A</text>
      

        <text x="28" y="360" font-family="'JetBrains Mono','Courier New',monospace" font-size="18" fill="#c0caf5">LEETCODE</text>
        <text x="372" y="360" font-family="'JetBrains Mono','Courier New',monospace" font-size="18" font-weight="700" fill="#e0af68" text-anchor="end">Knight · 1,993</text>
      

        <text x="28" y="394" font-family="'JetBrains Mono','Courier New',monospace" font-size="18" fill="#c0caf5">CODEFORCES</text>
        <text x="372" y="394" font-family="'JetBrains Mono','Courier New',monospace" font-size="18" font-weight="700" fill="#7aa2f7" text-anchor="end">Pupil · 1,293</text>
      

        <text x="28" y="428" font-family="'JetBrains Mono','Courier New',monospace" font-size="18" fill="#c0caf5">CODECHEF</text>
        <text x="372" y="428" font-family="'JetBrains Mono','Courier New',monospace" font-size="18" font-weight="700" fill="#bb9af7" text-anchor="end">3★ · 1,724</text>
      
<line x1="28" y1="462" x2="372" y2="462" stroke="#3b4261" stroke-width="1" stroke-dasharray="4 4" />

  <text x="200" y="522" text-anchor="middle" font-family="'JetBrains Mono','Courier New',monospace" font-size="11" fill="#565f89">updated 2026-07-24 12:13 UTC</text>
</svg>