<svg xmlns="http://www.w3.org/2000/svg" width="400" height="556" viewBox="0 0 400 556">
  <defs>
    <clipPath id="zz-top">
      <path d="M0,0 L10,-6 L20,0 L30,-6 L40,0 L50,-6 L60,0 L70,-6 L80,0 L90,-6 L100,0 L110,-6 L120,0 L130,-6 L140,0 L150,-6 L160,0 L170,-6 L180,0 L190,-6 L200,0 L210,-6 L220,0 L230,-6 L240,0 L250,-6 L260,0 L270,-6 L280,0 L290,-6 L300,0 L310,-6 L320,0 L330,-6 L340,0 L350,-6 L360,0 L370,-6 L380,0 L390,-6 L400,0 L400,14 L0,14 Z" />
    </clipPath>
    <clipPath id="zz-bottom">
      <path d="M0,556 L10,562 L20,556 L30,562 L40,556 L50,562 L60,556 L70,562 L80,556 L90,562 L100,556 L110,562 L120,556 L130,562 L140,556 L150,562 L160,556 L170,562 L180,556 L190,562 L200,556 L210,562 L220,556 L230,562 L240,556 L250,562 L260,556 L270,562 L280,556 L290,562 L300,556 L310,562 L320,556 L330,562 L340,556 L350,562 L360,556 L370,562 L380,556 L390,562 L400,556 L400,542 L0,542 Z" />
    </clipPath>
  </defs>

  <rect x="0" y="0" width="400" height="556" fill="#1a1b27" />
  <g clip-path="url(#zz-top)"><rect x="0" y="0" width="400" height="16" fill="#1f2335" /></g>
  <g clip-path="url(#zz-bottom)"><rect x="0" y="540" width="400" height="16" fill="#1f2335" /></g>
  <rect x="0" y="14" width="400" height="528" fill="#1f2335" />

  <text x="200" y="42" text-anchor="middle" font-family="'JetBrains Mono','Courier New',monospace" font-size="17" font-weight="700" letter-spacing="3" fill="#7aa2f7">DEV RECEIPT</text>
  <text x="200" y="62" text-anchor="middle" font-family="'JetBrains Mono','Courier New',monospace" font-size="11" letter-spacing="2" fill="#565f89">github.com/samir0607</text>
  <line x1="28" y1="80" x2="372" y2="80" stroke="#3b4261" stroke-width="1" stroke-dasharray="4 4" />

</svg>