<svg xmlns="http://www.w3.org/2000/svg" width="108" height="108" viewBox="0 0 108 108" role="img" aria-label="Codeforces">
  <defs>
    <linearGradient id="fill" x1="10" y1="6" x2="98" y2="102">
      <stop stop-color="#2a2b3d"/>
      <stop offset="1" stop-color="#14151f"/>
    </linearGradient>
    <radialGradient id="sheen" cx="32%" cy="18%" r="55%">
      <stop stop-color="#ffffff" stop-opacity=".45"/>
      <stop offset="1" stop-color="#ffffff" stop-opacity="0"/>
    </radialGradient>
    <filter id="shadow" x="-40%" y="-40%" width="180%" height="200%">
      <feDropShadow dx="0" dy="6" stdDeviation="6" flood-color="#0b0b12" flood-opacity=".55"/>
    </filter>
    <filter id="glyphShadow" x="-30%" y="-30%" width="160%" height="160%">
      <feDropShadow dx="0" dy="1.5" stdDeviation="1.5" flood-color="#000000" flood-opacity=".45"/>
    </filter>
  </defs>
  <g filter="url(#shadow)">
    <rect x="8" y="8" width="92" height="92" rx="30" fill="url(#fill)"/>
    <rect x="8" y="8" width="92" height="92" rx="30" fill="url(#sheen)"/>
    <circle cx="54" cy="54" r="29" fill="#f1f1f4"/>
    <g filter="url(#glyphShadow)" transform="translate(32,32) scale(1.8333)" fill="#1F8ACB">
      <path d="M4.5 7.5C5.328 7.5 6 8.172 6 9v10.5c0 .828-.672 1.5-1.5 1.5h-3C.673 21 0 20.328 0 19.5V9c0-.828.673-1.5 1.5-1.5h3zm9-4.5c.828 0 1.5.672 1.5 1.5v15c0 .828-.672 1.5-1.5 1.5h-3c-.827 0-1.5-.672-1.5-1.5v-15c0-.828.673-1.5 1.5-1.5h3zm9 7.5c.828 0 1.5.672 1.5 1.5v7.5c0 .828-.672 1.5-1.5 1.5h-3c-.828 0-1.5-.672-1.5-1.5V12c0-.828.672-1.5 1.5-1.5h3z"/>
    </g>
  </g>
</svg>
