<svg xmlns="http://www.w3.org/2000/svg" width="108" height="108" viewBox="0 0 108 108" role="img" aria-label="LinkedIn">
  <defs>
    <linearGradient id="fill" x1="10" y1="6" x2="98" y2="102">
      <stop stop-color="#0A66C2"/>
      <stop offset="1" stop-color="#004182"/>
    </linearGradient>
    <radialGradient id="sheen" cx="32%" cy="18%" r="55%">
      <stop stop-color="#ffffff" stop-opacity=".45"/>
      <stop offset="1" stop-color="#ffffff" stop-opacity="0"/>
    </radialGradient>
    <filter id="shadow" x="-40%" y="-40%" width="180%" height="200%">
      <feDropShadow dx="0" dy="6" stdDeviation="6" flood-color="#0b0b12" flood-opacity=".55"/>
    </filter>
    <filter id="glyphShadow" x="-30%" y="-30%" width="160%" height="160%">
      <feDropShadow dx="0" dy="1.5" stdDeviation="1.5" flood-color="#000000" flood-opacity=".45"/>
    </filter>
  </defs>
  <g filter="url(#shadow)">
    <rect x="8" y="8" width="92" height="92" rx="30" fill="url(#fill)"/>
    <rect x="8" y="8" width="92" height="92" rx="30" fill="url(#sheen)"/>
    <g filter="url(#glyphShadow)">
      <path d="M29 39h10v30H29V39Zm5-14a5.8 5.8 0 1 1 0 11.6A5.8 5.8 0 0 1 34 25Zm16 14h9.4v4h.1c1.4-2.5 4.6-5 9.4-5 10 0 12 6.6 12 15.2V69H71V55.1c0-3.3-.1-7.5-4.6-7.5-4.6 0-5.3 3.6-5.3 7.3V69H50V39Z" fill="#fff"/>
    </g>
  </g>
</svg>
