<svg xmlns="http://www.w3.org/2000/svg" width="108" height="108" viewBox="0 0 108 108" role="img" aria-label="LinkedIn">
  <defs>
    <linearGradient id="top" x1="22" y1="12" x2="82" y2="76">
      <stop stop-color="#bfdbfe"/>
      <stop offset=".42" stop-color="#0a66c2"/>
      <stop offset="1" stop-color="#1e3a8a"/>
    </linearGradient>
    <linearGradient id="side" x1="14" y1="54" x2="94" y2="102">
      <stop stop-color="#075985"/>
      <stop offset="1" stop-color="#020617"/>
    </linearGradient>
    <filter id="shadow" x="-30%" y="-30%" width="170%" height="180%">
      <feDropShadow dx="0" dy="13" stdDeviation="7" flood-color="#020617" flood-opacity=".75"/>
    </filter>
  </defs>
  <g filter="url(#shadow)">
    <path d="M18 34 54 13l36 21v42L54 97 18 76Z" fill="url(#side)"/>
    <path d="M18 30 54 9l36 21-36 21Z" fill="#e0f2fe" opacity=".55"/>
    <path d="M18 30 54 9l36 21v38L54 89 18 68Z" fill="url(#top)"/>
    <path d="M18 30 54 51v38L18 68Z" fill="#075985" opacity=".48"/>
    <path d="M90 30 54 51v38l36-21Z" fill="#172554" opacity=".55"/>
    <path d="M29 39h10v30H29V39Zm5-14a5.8 5.8 0 1 1 0 11.6A5.8 5.8 0 0 1 34 25Zm16 14h9.4v4h.1c1.4-2.5 4.6-5 9.4-5 10 0 12 6.6 12 15.2V69H71V55.1c0-3.3-.1-7.5-4.6-7.5-4.6 0-5.3 3.6-5.3 7.3V69H50V39Z" fill="#fff"/>
    <path d="M25 26 54 9l29 17" fill="none" stroke="#fff" stroke-opacity=".7" stroke-width="2"/>
  </g>
</svg>
